<svg viewBox="0 0 748.5 74.6" xml:space="preserve">
  <path d="M42.2 51.2 41.1 72c-4.3 1.7-8.2 2.6-11.6 2.6-8 0-14.8-3-20.3-8.9C3.1 59.1 0 49.7 0 37.6c0-11.3 2.9-20.4 8.7-27.3C14.5 3.5 22.2.1 31.9.1c3.1 0 6.3.6 9.6 1.8v20.5c-2.9-2.9-5.9-4.3-8.9-4.3-4 0-7.1 1.7-9.3 5.1-2.2 3.4-3.4 8.1-3.4 14.2 0 2.9.3 5.5.8 7.8.6 2.3 1.4 4.2 2.4 5.8s2.3 2.8 3.8 3.6 3.3 1.3 5.2 1.3c3.3-.1 6.7-1.6 10.1-4.7zm41.6 22.1h-34V1.4h19.4V56h14.6v17.3zm58.3-35.7c0 11-2.5 19.9-7.5 26.7s-11.4 10.2-19.4 10.2c-7.1 0-13.2-2.6-18.2-7.9-6.4-6.6-9.5-16.6-9.5-29.9 0-12.7 3.3-22.5 10-29.2 4.9-5 10.8-7.5 17.6-7.5 8.3 0 14.9 3.4 19.8 10.2 4.8 6.8 7.2 15.9 7.2 27.4zm-20.1.1c0-13-2.3-19.5-6.9-19.5-2.3 0-4.1 1.7-5.5 5.1-1.3 3.2-2 7.8-2 14 0 6.1.6 10.8 1.9 14.1s3 5 5.2 5c2.3 0 4.1-1.6 5.3-4.9 1.3-3.3 2-7.9 2-13.8zm58.5 35.6h-19.8L144.2 1.4h20.4l3.5 20.5c1.3 7.9 2.4 16.6 3.2 26.4.3-4.3.8-8.4 1.3-12.1.5-3.8 1.1-7.4 1.8-11L179 1.4h21.1l-19.6 71.9zm24.6 0V1.4h36.1v16.9h-16.7v10.5h15V45h-15v11h16.7v17.3h-36.1zm95.6 0h-21l-9.6-25.6c-.1-.4-.3-1-.5-1.7s-.5-1.6-.9-2.6l.1 4.8v25.2h-19.3V1.5h19.9c8.8 0 15.3 1.7 19.7 5.2 5.5 4.4 8.3 10.7 8.3 18.8 0 8.7-3.7 14.7-11.1 18l14.4 29.8zM269 34.7h1.3c2.2 0 4.1-.9 5.6-2.6 1.5-1.7 2.2-3.9 2.2-6.5 0-5.4-2.8-8.1-8.4-8.1h-.7v17.2zm72.1 38.6h-34V1.4h19.4V56h14.6v17.3zm5.8 0V1.4H383v16.9h-16.7v10.5h15V45h-15v11H383v17.3h-36.1zm96.2 0H423l-1.4-9.1h-13.1l-1.6 9.1h-20.1l17.3-71.9h23.8l15.2 71.9zm-23.8-24.6-1.3-8.4s-.1-.4-.2-1.3c-.1-.7-.4-3.4-1-8.1-.1-.5-.1-1.2-.2-2.2-.1-.9-.2-2.1-.4-3.5l-.6-6.8c-.1.7-.1 1.4-.3 2.2-.1.8-.2 1.7-.3 2.7-.2 1.9-.4 3.3-.5 4s-.2 1.2-.2 1.4l-1.4 8.7-2 11.3h8.4zm48.8 24.6h-19.4V1.4H483v16.9h-14.9v10.5H482V45h-13.9v28.3zm70.6 0h-19.4V1.4h34.3v16.9h-14.9v10.5h13.9V45h-13.9v28.3zm72.5 0h-20.1l-1.4-9.1h-13.1l-1.6 9.1h-20l17.3-71.9H596l15.2 71.9zm-23.8-24.6-1.3-8.4s-.1-.4-.2-1.3c-.1-.7-.4-3.4-1-8.1-.1-.5-.1-1.2-.2-2.2-.1-.9-.2-2.1-.4-3.5l-.6-6.8c-.1.7-.1 1.4-.3 2.2-.1.8-.2 1.7-.3 2.7-.2 1.9-.4 3.3-.5 4s-.2 1.2-.2 1.4l-1.4 8.7-2 11.3h8.4zM668 73.3h-21l-9.6-25.6c-.1-.4-.3-1-.5-1.7s-.5-1.6-.9-2.6l.1 4.8v25.2h-19.3V1.5h19.9c8.8 0 15.3 1.7 19.7 5.2 5.5 4.4 8.3 10.7 8.3 18.8 0 8.7-3.7 14.7-11.1 18L668 73.3zm-31.7-38.6h1.3c2.2 0 4.1-.9 5.6-2.6 1.5-1.7 2.2-3.9 2.2-6.5 0-5.4-2.8-8.1-8.4-8.1h-.7v17.2zm112.2 38.6h-20.3l-1.4-32.8-.6-13.1c-.2 2.5-.5 4.9-.7 7.2-.3 2.3-.6 4.5-1 6.6l-6.1 32h-15.8l-5.2-32.1c-.3-1.9-.7-5.1-1.3-9.6-.1-.7-.2-2.1-.4-4.2l-.5 13.3-1.7 32.6h-20.7l8.4-71.9h24.2l4.1 24.2c.3 2 .6 4.1.9 6.5.3 2.3.5 4.9.7 7.6.4-4.6 1-8.6 1.7-12.3l4.9-26h24l6.8 72z"/>
</svg>