<?xml version="1.0" standalone="no"?>
<!DOCTYPE svg PUBLIC "-//W3C//DTD SVG 20010904//EN"
 "http://www.w3.org/TR/2001/REC-SVG-20010904/DTD/svg10.dtd">
<svg version="1.0" xmlns="http://www.w3.org/2000/svg"
 width="1256.000000pt" height="1256.000000pt" viewBox="0 0 1256.000000 1256.000000"
 preserveAspectRatio="xMidYMid meet">
<metadata>
Created by potrace 1.11, written by Peter Selinger 2001-2013
</metadata>
<g transform="translate(0.000000,1256.000000) scale(0.100000,-0.100000)"
fill="#000000" stroke="none">
<path d="M4375 12553 c-49 -6 -227 -43 -265 -56 -19 -6 -37 -12 -40 -12 -21
-4 -89 -30 -107 -41 -13 -8 -23 -12 -23 -9 0 5 -181 -85 -190 -95 -3 -3 -26
-19 -52 -35 -27 -17 -48 -33 -48 -37 0 -5 -4 -8 -10 -8 -10 0 -38 -21 -76 -57
-13 -13 -25 -23 -28 -23 -7 0 -117 -112 -153 -156 -86 -104 -145 -191 -183
-269 -14 -27 -28 -52 -31 -55 -6 -5 -60 -138 -63 -155 -1 -5 -5 -15 -8 -21 -6
-9 -14 -39 -33 -117 -2 -10 -6 -26 -9 -35 -3 -9 -8 -33 -11 -52 -3 -19 -8 -42
-11 -51 -5 -18 -16 -162 -15 -196 0 -13 -3 -23 -7 -24 -4 -1 -27 -2 -52 -4
-61 -4 -151 -14 -181 -21 -13 -3 -37 -7 -54 -9 -16 -3 -61 -14 -100 -25 -38
-12 -78 -23 -87 -25 -9 -2 -27 -9 -40 -16 -13 -7 -29 -14 -37 -15 -23 -4 -171
-79 -171 -86 0 -5 -9 -8 -20 -8 -11 0 -20 -4 -20 -8 0 -5 -11 -14 -25 -20 -14
-7 -31 -17 -38 -22 -7 -6 -35 -27 -62 -48 -80 -59 -210 -181 -255 -238 -8 -11
-31 -40 -50 -64 -38 -48 -79 -109 -110 -165 -30 -54 -64 -119 -66 -130 -2 -5
-19 -51 -38 -100 -19 -50 -37 -102 -40 -115 -2 -14 -7 -32 -10 -40 -3 -8 -8
-27 -11 -42 -3 -16 -7 -38 -10 -50 -12 -64 -18 -147 -18 -278 -1 -152 5 -212
29 -320 8 -36 17 -75 20 -88 2 -13 16 -53 30 -90 14 -37 27 -74 29 -82 4 -20
86 -183 94 -190 4 -3 19 -27 35 -53 15 -26 47 -72 72 -102 24 -30 44 -57 44
-60 0 -5 145 -150 181 -180 49 -41 159 -120 206 -147 73 -43 235 -118 253
-118 5 0 18 -4 28 -9 24 -13 54 -23 77 -27 11 -2 55 -12 99 -23 123 -31 290
-45 315 -27 11 8 13 8 7 -1 -5 -9 0 -13 16 -12 23 1 193 -9 193 -12 0 -2 143
-12 192 -13 29 -1 53 -3 53 -6 0 -3 30 -7 66 -8 37 -1 69 -4 73 -6 8 -5 168
-19 228 -20 24 -1 43 -3 43 -6 0 -3 12 -5 28 -6 33 -1 196 -17 307 -29 28 -4
68 -8 90 -10 130 -13 261 -29 345 -42 25 -4 62 -7 82 -7 21 -1 38 -3 38 -6 0
-3 15 -7 33 -8 30 -2 51 -6 102 -16 11 -2 39 -7 63 -11 23 -4 42 -11 42 -17 0
-6 -6 -8 -14 -5 -8 3 -17 3 -20 -1 -4 -3 -14 -7 -24 -9 -9 -1 -53 -9 -97 -18
-44 -9 -99 -18 -122 -20 -24 -2 -46 -6 -51 -9 -5 -3 -35 -8 -68 -11 -32 -4
-61 -8 -64 -10 -3 -2 -30 -6 -60 -10 -30 -3 -62 -8 -70 -10 -8 -2 -37 -7 -65
-10 -27 -3 -81 -10 -120 -15 -38 -6 -90 -12 -114 -15 -24 -2 -60 -7 -80 -9
-59 -9 -144 -18 -181 -22 -19 -1 -35 -3 -35 -4 0 -1 -11 -3 -25 -4 -14 -1 -54
-6 -90 -11 -36 -4 -78 -9 -95 -11 -16 -1 -30 -3 -30 -4 0 0 -27 -3 -60 -6 -33
-3 -73 -7 -90 -8 -176 -21 -205 -25 -216 -32 -5 -3 -9 0 -9 6 0 6 -4 9 -9 5
-14 -8 -126 -21 -251 -30 -225 -15 -222 -15 -330 -36 -110 -22 -379 -119 -388
-141 -2 -5 -7 -8 -12 -8 -8 0 -123 -66 -145 -82 -22 -18 -92 -71 -118 -91 -48
-37 -148 -139 -221 -228 -43 -51 -135 -199 -169 -269 -46 -98 -87 -207 -80
-214 4 -3 0 -6 -7 -6 -7 0 -11 -3 -7 -6 3 -3 2 -17 -3 -30 -6 -14 -12 -37 -15
-52 -3 -15 -13 -63 -22 -107 -17 -85 -23 -368 -10 -460 39 -275 144 -520 322
-754 17 -23 198 -205 230 -231 60 -50 182 -127 272 -174 94 -47 253 -109 262
-101 2 3 9 1 15 -4 7 -6 24 -12 39 -15 26 -6 49 -11 105 -21 32 -7 82 -14 139
-19 22 -2 46 -6 51 -10 6 -3 13 -2 17 3 3 6 15 7 28 2 17 -6 22 -17 23 -47 2
-47 12 -151 18 -179 2 -11 10 -53 17 -92 7 -40 16 -73 19 -73 3 0 7 -11 8 -24
4 -56 96 -271 162 -381 17 -27 35 -60 40 -73 5 -12 17 -25 25 -28 8 -4 15 -10
15 -16 0 -10 56 -84 83 -109 9 -9 17 -19 17 -22 0 -5 89 -93 150 -148 50 -44
156 -119 169 -119 6 0 11 -4 11 -8 0 -10 203 -112 223 -112 7 0 17 -3 21 -7 3
-4 16 -8 28 -10 12 -2 27 -8 35 -14 7 -6 13 -9 13 -6 0 3 22 -1 49 -9 27 -8
71 -17 97 -20 27 -3 62 -7 79 -10 46 -6 215 -5 265 1 25 4 72 10 104 15 32 5
63 7 67 4 5 -3 9 -1 9 4 0 5 6 9 13 10 33 3 74 10 87 15 8 3 55 17 105 32 99
30 236 92 302 137 23 15 46 28 51 28 6 0 12 3 14 8 2 4 24 24 50 45 26 20 60
50 75 66 52 52 103 110 103 116 0 3 11 18 25 33 14 15 25 32 25 39 0 7 4 13 9
13 5 0 14 13 21 30 7 16 17 30 22 30 5 0 7 4 4 9 -3 5 1 14 9 21 8 7 15 16 15
20 0 5 16 43 36 85 46 97 115 291 107 299 -4 3 -2 6 3 6 5 0 10 8 11 18 1 9
22 94 47 187 26 94 48 179 50 190 2 11 9 40 16 65 7 25 13 52 15 60 2 8 9 35
16 60 6 25 13 52 15 60 1 8 7 29 12 47 6 17 7 35 4 39 -4 4 -2 4 5 0 11 -6 9
-48 -3 -68 -3 -4 1 -8 8 -8 8 0 9 -3 3 -8 -6 -4 -10 -55 -10 -117 0 -60 -4
-118 -8 -127 -5 -11 -4 -18 3 -18 6 0 8 -5 4 -12 -12 -20 -3 -545 10 -566 3
-6 2 -13 -4 -17 -6 -4 -7 -11 -4 -17 4 -6 8 -47 10 -92 4 -82 11 -171 14 -171
1 0 3 -20 5 -45 3 -45 13 -142 20 -190 2 -14 6 -43 9 -65 3 -22 8 -60 11 -85
5 -38 16 -110 40 -249 2 -14 9 -47 14 -75 19 -95 22 -111 26 -131 2 -11 6 -29
9 -40 8 -30 23 -89 24 -95 2 -16 18 -78 44 -175 17 -60 31 -114 32 -120 2 -5
6 -17 9 -25 3 -8 26 -82 52 -165 26 -82 52 -156 58 -163 5 -6 6 -12 2 -12 -4
0 -3 -6 2 -12 5 -7 20 -42 33 -78 13 -36 34 -86 47 -112 13 -27 23 -49 22 -50
-3 -11 166 -365 180 -378 4 -3 20 -32 36 -65 17 -33 33 -64 38 -70 21 -27 137
-218 137 -225 0 -5 4 -10 8 -12 4 -2 33 -39 64 -83 135 -194 261 -340 462
-539 216 -214 274 -246 438 -241 47 1 91 6 97 9 6 4 22 9 36 12 13 2 37 9 52
16 16 6 31 11 36 10 4 -1 7 2 7 7 0 5 16 15 35 22 19 7 35 17 35 21 0 4 6 8
13 8 8 0 25 9 38 21 13 11 37 30 52 42 136 104 244 295 250 441 2 40 -2 51
-18 60 -52 28 -243 157 -267 179 -16 15 -28 24 -28 22 0 -11 -221 203 -300
291 -60 66 -86 97 -145 174 -27 36 -52 67 -55 70 -19 18 -210 307 -210 319 0
6 -4 11 -8 11 -5 0 -16 15 -25 33 -9 17 -30 55 -46 82 -62 105 -121 216 -198
375 -87 178 -97 201 -138 300 -14 36 -32 79 -40 95 -14 31 -105 272 -110 290
-1 6 -5 17 -8 25 -8 20 -67 201 -72 220 -2 8 -13 47 -25 85 -33 112 -90 342
-90 364 0 12 -4 21 -8 21 -4 0 -8 8 -9 18 -1 9 -2 32 -4 49 -1 18 -5 33 -9 33
-4 0 -5 11 -2 25 2 14 0 25 -4 25 -5 0 -10 12 -10 28 -2 33 -13 118 -20 152
-18 91 -38 420 -25 420 4 0 8 -6 8 -12 2 -32 11 -94 16 -108 3 -8 12 -51 22
-95 9 -44 23 -102 32 -130 8 -27 17 -59 18 -70 4 -26 57 -175 85 -240 26 -60
103 -218 110 -225 3 -3 14 -21 24 -40 63 -115 211 -281 337 -378 58 -45 259
-160 259 -147 0 2 19 -4 43 -14 67 -28 143 -46 287 -67 35 -5 258 -4 300 1 19
3 53 7 75 10 22 3 50 6 63 7 12 1 22 5 22 8 0 3 17 6 38 7 20 1 57 9 82 18 25
9 56 19 69 21 12 3 64 21 115 41 250 99 446 237 629 445 58 65 53 59 105 138
23 36 45 70 50 75 15 19 77 150 74 158 -1 4 2 7 6 7 5 0 9 6 10 13 0 6 15 49
31 95 17 46 33 97 36 114 3 17 8 34 10 38 2 4 7 27 11 51 3 24 8 55 10 69 2
14 7 61 10 105 3 44 8 82 10 84 2 2 37 5 78 7 41 2 110 11 153 20 43 9 90 17
106 18 15 0 27 4 27 8 0 5 3 7 8 6 11 -3 126 33 137 43 5 5 15 9 22 9 25 0
251 115 273 140 3 3 17 11 33 19 15 8 27 18 27 23 0 4 4 8 10 8 10 0 28 14
108 85 94 83 175 172 232 255 13 19 27 37 31 40 3 3 9 15 13 28 4 12 12 22 17
22 5 0 9 7 9 15 0 8 5 15 10 15 6 0 10 9 10 20 0 11 4 20 8 20 7 0 31 52 30
67 0 3 4 9 10 12 17 11 83 193 107 296 14 62 16 71 21 105 2 19 7 55 10 80 14
96 6 400 -10 400 -5 0 -7 2 -4 5 3 3 1 27 -4 53 -5 26 -11 58 -14 72 -7 34
-67 214 -74 220 -3 3 -6 12 -8 20 -2 8 -20 47 -39 85 -20 39 -41 80 -47 92 -6
13 -14 23 -18 23 -5 0 -8 5 -8 11 0 11 -50 82 -62 87 -5 2 -8 10 -8 17 0 7 -3
15 -7 17 -5 2 -29 28 -56 60 -45 54 -84 93 -172 173 -65 58 -223 160 -328 210
-53 26 -103 48 -110 49 -6 1 -16 4 -22 7 -10 7 -77 29 -98 33 -7 2 -19 6 -27
9 -8 4 -28 8 -45 11 -16 2 -30 5 -30 6 0 2 -20 5 -80 15 -79 12 -102 14 -200
20 -101 6 -153 10 -235 19 -24 3 -67 8 -95 11 -84 10 -128 15 -165 20 -19 3
-60 7 -90 10 -30 2 -66 6 -80 9 -14 3 -52 7 -85 11 -33 3 -90 10 -127 16 -37
6 -72 8 -78 4 -5 -3 -10 -2 -10 3 0 4 -21 9 -47 11 -26 1 -49 4 -52 6 -4 2
-35 6 -71 10 -71 8 -84 10 -180 24 -36 6 -83 13 -105 16 -22 2 -51 7 -65 10
-14 2 -41 7 -60 10 -19 3 -73 13 -120 21 -47 9 -96 18 -110 20 -14 2 -47 10
-75 17 l-50 14 55 12 c30 6 66 13 80 16 47 9 207 35 256 41 84 10 99 12 99 14
0 1 14 3 30 4 30 3 116 14 165 21 34 5 105 13 165 20 28 3 66 8 85 10 19 3 60
7 90 10 30 3 66 7 80 10 14 2 59 7 100 10 41 4 83 9 92 10 16 3 98 12 183 20
22 2 63 6 90 9 28 3 75 8 105 11 30 2 55 5 55 6 0 1 20 3 45 5 121 8 160 13
169 19 6 3 11 2 11 -4 0 -7 8 -7 23 -2 14 5 30 5 40 0 9 -6 17 -6 17 -2 0 5
17 9 38 10 53 2 117 11 157 22 19 5 35 7 35 4 0 -3 6 0 13 6 8 6 16 9 19 6 13
-13 359 119 378 145 3 3 25 16 50 29 24 13 57 33 72 45 15 11 48 37 75 56 26
19 73 60 105 91 32 31 60 53 63 51 3 -3 5 -1 5 5 0 5 14 25 31 44 61 68 121
150 177 246 57 97 115 223 115 249 0 8 4 14 8 14 4 0 10 17 15 38 4 20 8 39 9
42 17 59 28 100 31 120 3 14 7 31 9 38 18 51 26 319 13 442 -7 66 -9 74 -30
170 -13 60 -12 58 -20 80 -3 8 -11 33 -17 55 -15 47 -19 59 -60 148 -17 37
-31 70 -31 73 0 11 -106 174 -152 234 -57 74 -235 251 -279 277 -16 10 -29 21
-29 25 0 4 -5 8 -12 8 -6 0 -19 7 -28 15 -75 68 -352 194 -485 221 -11 2 -40
8 -65 13 -65 15 -105 20 -195 27 -44 3 -85 7 -91 9 -7 2 -12 21 -12 42 0 48
-17 208 -22 208 -2 0 -5 15 -13 60 -18 100 -73 251 -135 370 -128 246 -351
483 -572 607 -25 14 -61 34 -80 45 -46 26 -234 102 -263 105 -12 2 -27 7 -33
10 -6 4 -21 9 -35 12 -13 2 -35 7 -49 10 -22 6 -54 11 -125 19 -11 2 -24 5
-30 8 -14 8 -322 3 -365 -5 -19 -4 -48 -9 -65 -12 -95 -15 -147 -28 -245 -64
-89 -32 -274 -122 -301 -146 -8 -8 -19 -14 -23 -14 -5 0 -21 -10 -36 -22 -15
-13 -40 -32 -56 -43 -82 -58 -273 -248 -274 -272 0 -7 -4 -13 -9 -13 -10 0
-81 -105 -81 -120 0 -5 -4 -10 -9 -10 -19 0 -164 -322 -171 -378 0 -4 -5 -25
-11 -47 -12 -43 -13 -48 -24 -113 -11 -68 -14 -92 -20 -192 -8 -145 -15 -222
-19 -250 -3 -14 -7 -59 -11 -100 -3 -41 -8 -88 -10 -105 -3 -16 -8 -57 -11
-90 -11 -129 -14 -152 -20 -195 -3 -25 -8 -61 -10 -80 -2 -19 -5 -55 -8 -80
-3 -25 -8 -67 -11 -95 -3 -27 -7 -65 -10 -84 -3 -18 -8 -59 -11 -90 -3 -31 -7
-69 -9 -86 -3 -16 -7 -50 -10 -75 -3 -24 -7 -56 -10 -69 -2 -14 -7 -52 -11
-83 -4 -32 -11 -58 -17 -58 -5 0 -5 -5 2 -13 6 -8 9 -16 7 -18 -2 -2 -7 -22
-10 -44 -4 -23 -8 -50 -10 -62 -6 -28 -17 -92 -21 -123 -2 -14 -8 -45 -14 -69
-5 -25 -8 -48 -5 -52 2 -4 0 -10 -6 -14 -5 -3 -10 -16 -10 -27 0 -27 -12 -16
-16 14 -2 13 -5 34 -8 48 -18 82 -29 146 -40 233 -2 17 -7 43 -10 57 -5 23
-11 65 -21 150 -7 55 -15 122 -20 155 -17 114 -41 309 -50 415 -2 25 -4 45 -5
45 -1 0 -3 14 -5 30 -1 17 -5 50 -8 75 -4 25 -9 72 -13 105 -3 33 -7 78 -10
100 -3 22 -7 63 -10 90 -4 52 -8 84 -20 195 -3 36 -8 83 -9 105 -2 22 -4 40
-5 40 -1 0 -5 53 -14 217 -7 122 -37 270 -76 384 -17 49 -34 99 -37 112 -3 12
-9 22 -14 22 -5 0 -9 6 -9 13 0 15 -42 101 -52 105 -5 2 -8 9 -8 16 0 7 -13
32 -30 54 -16 23 -30 45 -30 48 0 3 -15 25 -32 48 -18 22 -37 47 -43 54 -63
84 -340 332 -371 332 -4 0 -15 6 -23 14 -22 20 -216 116 -234 116 -9 0 -17 4
-19 8 -3 7 -118 45 -173 57 -11 3 -40 9 -65 14 -25 6 -61 13 -80 16 -40 7
-350 13 -395 8z"/>
</g>
</svg>
